# xmcd
#
# Track frame offsets:
#	150
#	22780
#	50407
#
# Disc length: 1037 seconds
#
# Revision: 3
# Processed by: cddbd v1.5.1PL0 Copyright (c) Steve Scherf et al.
# Submitted via: dBpowerAMP V4.0
#
DISCID=17040b03
DTITLE=R. Kelly - Happy People 
DYEAR=2004
DGENRE=R&B
TTITLE0=Happy People - Radio Edit
TTITLE1=Happy People - Album Version
TTITLE2=Happy People - Instrumental
EXTD=
EXTT0=
EXTT1=
EXTT2=
PLAYORDER=
